<svg version="1.1" id="Layer_1" xmlns="http://www.w3.org/2000/svg" xmlns:xlink="http://www.w3.org/1999/xlink" x="0px" y="0px"
	 width="100%" viewBox="0 0 1248 832" enable-background="new 0 0 1248 832" xml:space="preserve">
<path fill="#252526" opacity="1.000000" stroke="none" 
	d="
M864.000000,833.000000 
	C576.034485,833.000000 288.569000,833.000000 1.051743,833.000000 
	C1.051743,555.734436 1.051743,278.468872 1.051743,1.101657 
	C416.882294,1.101657 832.764648,1.101657 1248.823486,1.101657 
	C1248.823486,278.333252 1248.823486,555.666626 1248.823486,833.000000 
	C1120.801880,833.000000 992.650940,833.000000 864.000000,833.000000 
M619.149658,195.993347 
	C617.695740,194.725540 616.264526,193.430344 614.780823,192.198364 
	C613.535217,191.164047 612.330505,189.532913 610.932007,189.320038 
	C602.456482,188.029922 593.951965,186.461441 585.415771,186.160675 
	C575.482117,185.810638 565.508240,186.795334 555.547729,186.964920 
	C545.437195,187.137070 536.138550,187.802216 527.313843,194.831329 
	C519.668518,200.921005 510.450958,205.602234 500.465515,208.130142 
	C491.655090,210.360596 484.742249,216.211426 477.831451,221.231064 
	C475.772583,220.505447 473.756989,219.336594 471.647369,219.130463 
	C462.222931,218.209595 452.708313,218.020126 443.343445,216.721436 
	C424.784058,214.147659 406.295532,211.056686 387.790314,208.100677 
	C376.467102,206.291931 365.122498,204.568970 353.865784,202.401154 
	C326.551331,197.140915 298.980042,194.028748 271.215179,193.260727 
	C248.663208,192.636887 226.589355,195.576996 205.132721,203.497452 
	C189.732193,209.182373 175.998688,216.923691 164.173859,228.269699 
	C146.758163,244.980164 133.981705,264.773285 124.065430,286.662628 
	C111.006386,315.489349 103.168037,345.714691 101.305672,377.163391 
	C99.082581,414.703369 101.464020,451.989319 112.016174,488.437897 
	C119.924118,515.752991 130.267471,541.983582 144.703232,566.551575 
	C156.028000,585.824890 168.379791,604.370544 183.955673,620.492920 
	C196.762344,633.748962 209.372543,647.322021 223.290924,659.340393 
	C236.836563,671.036926 251.336060,681.889221 266.492279,691.397888 
	C288.214508,705.025818 311.791107,715.204895 335.852081,724.156738 
	C340.007477,725.702759 343.555054,726.813110 345.867828,722.424805 
	C345.731750,725.073669 343.845978,728.736816 347.747772,729.657532 
	C352.919464,730.877930 356.815948,736.355591 362.985016,734.170898 
	C363.593750,733.955322 364.511688,734.627075 365.290070,734.874390 
	C371.735718,736.922241 378.153839,739.063232 384.637604,740.982544 
	C389.878967,742.534058 395.188263,743.862488 400.487732,745.210022 
	C411.624115,748.041687 422.718231,751.074524 433.937408,753.533447 
	C441.617950,755.216736 449.773346,755.156921 457.184723,757.534058 
	C465.788116,760.293640 474.313995,761.205688 483.179535,761.079407 
	C485.754120,761.042786 488.342285,761.937561 490.923676,762.408264 
	C497.502655,763.607727 504.039398,765.246948 510.672302,765.881714 
	C516.874146,766.475220 523.177979,766.001648 529.436890,766.001465 
	C547.093445,766.000977 564.750305,765.941833 582.406250,766.044250 
	C587.035583,766.071106 591.677734,766.993286 596.285889,766.807495 
	C602.894043,766.541077 609.483704,765.702515 616.068237,764.988037 
	C629.334717,763.548523 642.620605,762.237366 655.843811,760.465454 
	C664.350769,759.325500 672.794861,757.625000 681.205383,755.878418 
	C693.179810,753.391724 705.154297,750.858704 717.016113,747.895020 
	C723.053833,746.386475 728.800537,743.750427 734.757629,741.874634 
	C748.934143,737.410767 763.160583,733.105652 777.355347,728.699280 
	C778.292786,728.408264 779.118896,727.774414 780.021790,727.353760 
	C787.560242,723.841309 794.812622,719.633911 803.295410,718.476685 
	C804.335876,718.334778 805.106750,716.216553 806.466125,714.492737 
	C818.700562,708.485657 831.250916,703.037720 843.097351,696.344177 
	C862.161621,685.572327 881.389954,674.890625 899.390625,662.489502 
	C919.726074,648.479919 939.456787,633.385315 956.500732,615.289124 
	C970.507812,600.417358 984.743408,585.685364 997.716553,569.934875 
	C1013.105103,551.252014 1024.874023,530.104736 1034.423828,507.869965 
	C1045.814697,481.348450 1052.884766,453.729218 1052.973022,424.676605 
	C1053.015381,410.704773 1053.045532,396.677368 1051.913330,382.770203 
	C1050.109009,360.604828 1048.195679,338.383301 1044.763916,316.430115 
	C1039.226685,281.008026 1028.672729,247.036453 1010.375366,215.907791 
	C995.877930,191.243866 977.338074,170.034653 953.430908,154.121872 
	C931.812744,139.732651 908.247192,129.753143 882.538269,124.809105 
	C862.218384,120.901436 841.902161,120.376236 821.546021,123.232094 
	C801.433838,126.053696 781.823303,131.188843 762.538330,137.624359 
	C728.703674,148.915192 696.395569,163.884277 663.764954,178.097763 
	C652.337585,183.075394 640.664673,187.489471 628.322754,192.131180 
	C625.498779,193.431641 622.674744,194.732101 619.149658,195.993347 
M1191.684082,755.366089 
	C1188.073608,766.542969 1179.792603,772.869507 1168.725342,776.921204 
	C1181.285278,780.855835 1189.156860,788.917664 1192.773560,801.505981 
	C1196.398071,795.851929 1198.868286,790.257446 1202.893311,786.208801 
	C1206.930420,782.147949 1212.518188,779.628845 1217.287109,776.524780 
	C1213.183472,774.141052 1208.229980,772.374390 1204.863892,769.016479 
	C1200.989014,765.151123 1198.441284,759.926758 1195.474854,755.193787 
	C1194.324951,753.359131 1193.674194,750.782288 1191.684082,755.366089 
z"/>
<path fill="#724065" opacity="1.000000" stroke="none" 
	d="
M629.103882,192.160919 
	C640.664673,187.489471 652.337585,183.075394 663.764954,178.097763 
	C696.395569,163.884277 728.703674,148.915192 762.538330,137.624359 
	C781.823303,131.188843 801.433838,126.053696 821.546021,123.232094 
	C841.902161,120.376236 862.218384,120.901436 882.538269,124.809105 
	C908.247192,129.753143 931.812744,139.732651 953.430908,154.121872 
	C977.338074,170.034653 995.877930,191.243866 1010.375366,215.907791 
	C1028.672729,247.036453 1039.226685,281.008026 1044.763916,316.430115 
	C1048.195679,338.383301 1050.109009,360.604828 1051.913330,382.770203 
	C1053.045532,396.677368 1053.015381,410.704773 1052.973022,424.676605 
	C1052.884766,453.729218 1045.814697,481.348450 1034.423828,507.869965 
	C1024.874023,530.104736 1013.105103,551.252014 997.716553,569.934875 
	C984.743408,585.685364 970.507812,600.417358 956.500732,615.289124 
	C939.456787,633.385315 919.726074,648.479919 899.390625,662.489502 
	C881.389954,674.890625 862.161621,685.572327 843.097351,696.344177 
	C831.250916,703.037720 818.700562,708.485657 805.854614,714.717651 
	C804.240967,713.068481 802.946533,711.292236 802.281494,709.305298 
	C795.384094,688.697388 785.954407,669.311096 775.337158,650.359802 
	C764.066711,630.242737 748.898376,614.705078 726.858765,607.366211 
	C707.327942,600.862671 687.450745,595.313538 667.524231,590.118713 
	C656.648499,587.283447 645.352966,586.058472 633.945435,583.868164 
	C628.820435,582.493286 624.044922,580.994568 619.156616,580.345581 
	C615.725342,579.889954 614.762512,578.610046 614.756104,575.299866 
	C614.734070,563.829041 614.424561,552.358643 614.347534,540.532837 
	C614.545532,538.080811 614.620239,535.984131 614.960815,533.638855 
	C629.080261,527.803345 641.701904,520.285767 652.536438,509.881805 
	C667.977844,495.053894 678.695068,477.288910 685.371399,457.054718 
	C686.475952,453.707153 687.677612,452.889252 691.368530,453.566376 
	C704.652100,456.003357 715.115173,451.035034 722.838928,440.121063 
	C732.572449,426.367310 730.500549,399.936554 708.876587,390.492432 
	C709.062378,389.119354 709.146179,388.108154 709.456726,387.172241 
	C718.208435,360.797119 719.864990,333.819183 715.965759,306.460449 
	C711.145203,272.636871 697.911255,242.961929 671.535461,220.309006 
	C660.070557,210.462357 646.531433,204.143005 631.938721,199.636017 
	C630.946594,196.912598 630.025208,194.536774 629.103882,192.160919 
z"/>
<path fill="#724065" opacity="1.000000" stroke="none" 
	d="
M345.733612,721.602356 
	C343.555054,726.813110 340.007477,725.702759 335.852081,724.156738 
	C311.791107,715.204895 288.214508,705.025818 266.492279,691.397888 
	C251.336060,681.889221 236.836563,671.036926 223.290924,659.340393 
	C209.372543,647.322021 196.762344,633.748962 183.955673,620.492920 
	C168.379791,604.370544 156.028000,585.824890 144.703232,566.551575 
	C130.267471,541.983582 119.924118,515.752991 112.016174,488.437897 
	C101.464020,451.989319 99.082581,414.703369 101.305672,377.163391 
	C103.168037,345.714691 111.006386,315.489349 124.065430,286.662628 
	C133.981705,264.773285 146.758163,244.980164 164.173859,228.269699 
	C175.998688,216.923691 189.732193,209.182373 205.132721,203.497452 
	C226.589355,195.576996 248.663208,192.636887 271.215179,193.260727 
	C298.980042,194.028748 326.551331,197.140915 353.865784,202.401154 
	C365.122498,204.568970 376.467102,206.291931 387.790314,208.100677 
	C406.295532,211.056686 424.784058,214.147659 443.343445,216.721436 
	C452.708313,218.020126 462.222931,218.209595 471.647369,219.130463 
	C473.756989,219.336594 475.772583,220.505447 477.548218,221.666824 
	C472.278564,226.195038 466.834808,229.847748 462.394409,234.465332 
	C450.709137,246.616913 442.690826,261.101166 437.214294,276.995483 
	C428.428741,302.493317 427.114685,328.733704 430.332764,355.228333 
	C431.913208,368.240143 434.792938,381.089111 440.608185,392.903168 
	C437.935272,393.796600 435.358826,394.261230 433.416290,395.627258 
	C421.907379,403.720459 417.839203,419.737854 423.528748,433.666199 
	C429.070831,447.233673 443.828369,456.384033 457.368713,453.619202 
	C462.798615,452.510437 464.120453,454.279327 465.576660,458.775330 
	C473.205017,482.327148 486.256165,502.355194 506.548950,516.805786 
	C515.809875,523.400574 526.307495,528.258606 536.186646,534.379944 
	C536.196350,543.604675 536.263611,552.353821 536.264282,561.559937 
	C536.151245,566.320923 535.805908,570.648682 536.144226,574.922241 
	C536.469666,579.033325 534.627686,580.370117 530.939453,580.943909 
	C525.744019,581.752258 520.620056,583.019836 515.059021,584.083008 
	C513.158997,584.144775 511.635376,584.046631 510.176605,584.309021 
	C479.863739,589.762268 449.933777,596.724609 421.270721,608.229736 
	C409.958344,612.770447 399.118286,618.579407 391.411102,628.336975 
	C384.740479,636.782166 378.273193,645.553894 373.005066,654.907288 
	C361.152802,675.950623 351.625031,698.063538 345.733612,721.602356 
z"/>
<path fill="#1E1E1D" opacity="1.000000" stroke="none" 
	d="
M345.800720,722.013550 
	C351.625031,698.063538 361.152802,675.950623 373.005066,654.907288 
	C378.273193,645.553894 384.740479,636.782166 391.411102,628.336975 
	C399.118286,618.579407 409.958344,612.770447 421.270721,608.229736 
	C449.933777,596.724609 479.863739,589.762268 510.176605,584.309021 
	C511.635376,584.046631 513.158997,584.144775 515.145081,584.488159 
	C516.157898,586.979431 516.295349,589.256958 517.257812,591.104736 
	C526.303711,608.471436 539.246765,620.906189 558.726074,626.585266 
	C588.727112,635.331909 626.721924,616.747986 634.246765,584.107361 
	C645.352966,586.058472 656.648499,587.283447 667.524231,590.118713 
	C687.450745,595.313538 707.327942,600.862671 726.858765,607.366211 
	C748.898376,614.705078 764.066711,630.242737 775.337158,650.359802 
	C785.954407,669.311096 795.384094,688.697388 802.281494,709.305298 
	C802.946533,711.292236 804.240967,713.068481 805.622864,714.978394 
	C805.106750,716.216553 804.335876,718.334778 803.295410,718.476685 
	C794.812622,719.633911 787.560242,723.841309 780.021790,727.353760 
	C779.118896,727.774414 778.292786,728.408264 777.355347,728.699280 
	C763.160583,733.105652 748.934143,737.410767 734.757629,741.874634 
	C728.800537,743.750427 723.053833,746.386475 717.016113,747.895020 
	C705.154297,750.858704 693.179810,753.391724 681.205383,755.878418 
	C672.794861,757.625000 664.350769,759.325500 655.843811,760.465454 
	C642.620605,762.237366 629.334717,763.548523 616.068237,764.988037 
	C609.483704,765.702515 602.894043,766.541077 596.285889,766.807495 
	C591.677734,766.993286 587.035583,766.071106 582.406250,766.044250 
	C564.750305,765.941833 547.093445,766.000977 529.436890,766.001465 
	C523.177979,766.001648 516.874146,766.475220 510.672302,765.881714 
	C504.039398,765.246948 497.502655,763.607727 490.923676,762.408264 
	C488.342285,761.937561 485.754120,761.042786 483.179535,761.079407 
	C474.313995,761.205688 465.788116,760.293640 457.184723,757.534058 
	C449.773346,755.156921 441.617950,755.216736 433.937408,753.533447 
	C422.718231,751.074524 411.624115,748.041687 400.487732,745.210022 
	C395.188263,743.862488 389.878967,742.534058 384.637604,740.982544 
	C378.153839,739.063232 371.735718,736.922241 365.290070,734.874390 
	C364.511688,734.627075 363.593750,733.955322 362.985016,734.170898 
	C356.815948,736.355591 352.919464,730.877930 347.747772,729.657532 
	C343.845978,728.736816 345.731750,725.073669 345.800720,722.013550 
M515.587402,738.637634 
	C516.638428,736.501404 518.588562,734.362244 518.581421,732.229614 
	C518.553711,723.964661 518.020325,715.693359 517.428223,707.442200 
	C517.181274,704.001465 515.413452,700.695801 511.546326,701.952515 
	C509.867920,702.497925 508.015778,706.479370 508.371216,708.531494 
	C509.261047,713.667908 507.293213,715.463745 502.668030,715.823669 
	C501.061859,715.948608 499.480469,716.391724 497.655853,716.732849 
	C496.987061,713.747681 496.864410,710.778931 495.607697,708.412415 
	C494.718109,706.737244 492.294312,705.876892 490.555389,704.652771 
	C489.466797,706.388672 487.268494,708.267761 487.470978,709.837097 
	C488.718323,719.503418 490.347595,729.132507 492.295197,738.683105 
	C492.574982,740.055115 495.258453,740.936829 496.829529,742.045471 
	C497.909912,740.451416 499.773468,738.918701 499.903961,737.250305 
	C500.157288,734.011169 499.437073,730.695923 499.093170,727.131470 
	C502.288788,726.461365 505.484985,725.791138 509.383545,724.973633 
	C509.383545,728.088013 509.239685,730.878967 509.420654,733.648743 
	C509.638153,736.977173 510.793518,739.579102 515.587402,738.637634 
M551.205811,700.501892 
	C547.273682,701.575256 542.641907,702.691650 543.558350,707.904968 
	C545.360535,718.157166 547.828125,728.300842 550.347961,738.407776 
	C550.658081,739.651550 553.296265,741.438293 554.276978,741.130432 
	C555.778687,740.658875 557.425842,738.746094 557.823914,737.149170 
	C558.313965,735.182983 557.702759,732.893372 557.352600,730.779114 
	C556.933167,728.245911 556.286804,725.750305 555.705383,723.085876 
	C557.963196,722.602417 559.778503,722.366577 561.493774,721.818115 
	C566.945557,720.074829 569.755066,716.391785 569.650208,711.252136 
	C569.543518,706.019958 566.256226,702.950623 561.836731,701.460815 
	C558.790710,700.433899 555.316650,700.676819 551.205811,700.501892 
M535.652649,711.855103 
	C529.590454,708.461731 528.538513,708.646484 524.967590,714.471741 
	C523.692688,716.551514 522.587463,718.851501 521.981323,721.199768 
	C520.862549,725.533997 521.619263,729.368408 525.813843,732.039429 
	C530.153259,734.802612 534.345703,734.436279 538.410645,731.752930 
	C542.336304,729.161560 543.791321,725.017761 542.349243,720.886353 
	C541.230652,717.681885 538.358398,715.089539 535.652649,711.855103 
z"/>
<path fill="#1E1E1D" opacity="1.000000" stroke="none" 
	d="
M440.997528,392.890839 
	C434.792938,381.089111 431.913208,368.240143 430.332764,355.228333 
	C427.114685,328.733704 428.428741,302.493317 437.214294,276.995483 
	C442.690826,261.101166 450.709137,246.616913 462.394409,234.465332 
	C466.834808,229.847748 472.278564,226.195038 477.600494,222.043915 
	C484.742249,216.211426 491.655090,210.360596 500.465515,208.130142 
	C510.450958,205.602234 519.668518,200.921005 527.313843,194.831329 
	C536.138550,187.802216 545.437195,187.137070 555.547729,186.964920 
	C565.508240,186.795334 575.482117,185.810638 585.415771,186.160675 
	C593.951965,186.461441 602.456482,188.029922 610.932007,189.320038 
	C612.330505,189.532913 613.535217,191.164047 614.780823,192.198364 
	C616.264526,193.430344 617.695740,194.725540 619.777710,196.258850 
	C624.273743,197.677444 628.141663,198.830521 632.009583,199.983612 
	C646.531433,204.143005 660.070557,210.462357 671.535461,220.309006 
	C697.911255,242.961929 711.145203,272.636871 715.965759,306.460449 
	C719.864990,333.819183 718.208435,360.797119 709.456726,387.172241 
	C709.146179,388.108154 709.062378,389.119354 708.581421,390.656128 
	C704.331177,396.736603 700.372253,402.256378 696.413391,407.776184 
	C695.121521,405.817444 695.089111,404.524353 694.926575,403.247833 
	C693.268860,390.230133 692.664673,376.961365 689.664856,364.258972 
	C685.178406,345.262329 675.889160,328.609924 659.903931,316.481293 
	C658.472107,315.394897 656.694153,314.764679 653.690674,313.200775 
	C654.988525,317.422516 655.743774,320.083893 656.627686,322.701874 
	C657.686035,325.836548 656.363586,327.432404 653.354614,326.964478 
	C649.951477,326.435242 646.269043,325.884186 643.380188,324.193878 
	C633.205322,318.240295 623.332764,311.771423 613.311218,305.553406 
	C611.169800,304.224731 608.884399,303.128296 606.665283,301.924927 
	C606.368652,302.314331 606.071960,302.703735 605.775330,303.093170 
	C606.914062,304.617340 607.971924,306.210785 609.207153,307.652313 
	C612.563965,311.569916 616.147949,315.302338 619.355347,319.335999 
	C622.560425,323.366699 621.512878,326.140228 616.389893,326.039856 
	C610.151062,325.917664 603.358582,325.931549 597.825989,323.532990 
	C584.906311,317.931854 572.532776,311.043976 560.072083,304.424988 
	C555.169495,301.820801 550.624451,298.543701 545.169617,295.101685 
	C545.169617,297.048492 544.949219,297.916321 545.202576,298.611481 
	C549.382935,310.081512 559.046265,317.273712 566.722107,326.200500 
	C543.277039,322.312347 525.396790,308.881561 509.272888,292.660980 
	C508.441406,293.291229 507.911804,293.503540 507.697723,293.890442 
	C507.057343,295.047729 506.490387,296.252563 505.983124,297.475494 
	C500.029755,311.827759 492.125824,324.733612 479.442841,334.266693 
	C468.212067,342.708252 461.522705,354.141510 457.911316,367.586578 
	C454.326355,380.933319 453.778900,394.513306 454.348114,408.208435 
	C454.397064,409.386353 454.354614,410.568115 454.354614,411.748077 
	C453.780243,411.957367 453.205872,412.166656 452.631500,412.375916 
	C448.753510,405.880890 444.875519,399.385864 440.997528,392.890839 
z"/>
<path fill="#C1C0C1" opacity="1.000000" stroke="none" 
	d="
M1191.797852,755.039368 
	C1193.674194,750.782288 1194.324951,753.359131 1195.474854,755.193787 
	C1198.441284,759.926758 1200.989014,765.151123 1204.863892,769.016479 
	C1208.229980,772.374390 1213.183472,774.141052 1217.287109,776.524780 
	C1212.518188,779.628845 1206.930420,782.147949 1202.893311,786.208801 
	C1198.868286,790.257446 1196.398071,795.851929 1192.773560,801.505981 
	C1189.156860,788.917664 1181.285278,780.855835 1168.725342,776.921204 
	C1179.792603,772.869507 1188.073608,766.542969 1191.797852,755.039368 
z"/>
<path fill="#533549" opacity="1.000000" stroke="none" 
	d="
M631.938721,199.636017 
	C628.141663,198.830521 624.273743,197.677444 620.128296,196.278458 
	C622.674744,194.732101 625.498779,193.431641 628.713257,192.146057 
	C630.025208,194.536774 630.946594,196.912598 631.938721,199.636017 
z"/>
<path fill="#C3997A" opacity="1.000000" stroke="none" 
	d="
M440.608185,392.903168 
	C444.875519,399.385864 448.753510,405.880890 452.631500,412.375916 
	C453.205872,412.166656 453.780243,411.957367 454.354614,411.748077 
	C454.354614,410.568115 454.397064,409.386353 454.348114,408.208435 
	C453.778900,394.513306 454.326355,380.933319 457.911316,367.586578 
	C461.522705,354.141510 468.212067,342.708252 479.442841,334.266693 
	C492.125824,324.733612 500.029755,311.827759 505.983124,297.475494 
	C506.490387,296.252563 507.057343,295.047729 507.697723,293.890442 
	C507.911804,293.503540 508.441406,293.291229 509.272888,292.660980 
	C525.396790,308.881561 543.277039,322.312347 566.722107,326.200500 
	C559.046265,317.273712 549.382935,310.081512 545.202576,298.611481 
	C544.949219,297.916321 545.169617,297.048492 545.169617,295.101685 
	C550.624451,298.543701 555.169495,301.820801 560.072083,304.424988 
	C572.532776,311.043976 584.906311,317.931854 597.825989,323.532990 
	C603.358582,325.931549 610.151062,325.917664 616.389893,326.039856 
	C621.512878,326.140228 622.560425,323.366699 619.355347,319.335999 
	C616.147949,315.302338 612.563965,311.569916 609.207153,307.652313 
	C607.971924,306.210785 606.914062,304.617340 605.775330,303.093170 
	C606.071960,302.703735 606.368652,302.314331 606.665283,301.924927 
	C608.884399,303.128296 611.169800,304.224731 613.311218,305.553406 
	C623.332764,311.771423 633.205322,318.240295 643.380188,324.193878 
	C646.269043,325.884186 649.951477,326.435242 653.354614,326.964478 
	C656.363586,327.432404 657.686035,325.836548 656.627686,322.701874 
	C655.743774,320.083893 654.988525,317.422516 653.690674,313.200775 
	C656.694153,314.764679 658.472107,315.394897 659.903931,316.481293 
	C675.889160,328.609924 685.178406,345.262329 689.664856,364.258972 
	C692.664673,376.961365 693.268860,390.230133 694.926575,403.247833 
	C695.089111,404.524353 695.121521,405.817444 696.413391,407.776184 
	C700.372253,402.256378 704.331177,396.736603 708.585144,391.053101 
	C730.500549,399.936554 732.572449,426.367310 722.838928,440.121063 
	C715.115173,451.035034 704.652100,456.003357 691.368530,453.566376 
	C687.677612,452.889252 686.475952,453.707153 685.371399,457.054718 
	C678.695068,477.288910 667.977844,495.053894 652.536438,509.881805 
	C641.701904,520.285767 629.080261,527.803345 614.579651,533.666321 
	C608.690613,535.319397 603.518982,537.163818 598.190369,537.966553 
	C589.731689,539.240967 581.175171,540.449036 572.647400,540.543335 
	C560.179382,540.681213 548.065247,537.850769 536.244263,533.904358 
	C526.307495,528.258606 515.809875,523.400574 506.548950,516.805786 
	C486.256165,502.355194 473.205017,482.327148 465.576660,458.775330 
	C464.120453,454.279327 462.798615,452.510437 457.368713,453.619202 
	C443.828369,456.384033 429.070831,447.233673 423.528748,433.666199 
	C417.839203,419.737854 421.907379,403.720459 433.416290,395.627258 
	C435.358826,394.261230 437.935272,393.796600 440.608185,392.903168 
M519.609436,376.804779 
	C514.119568,381.430542 512.867126,389.304413 516.733398,395.062653 
	C519.121338,398.619080 522.468201,399.567017 526.281738,397.918884 
	C530.467163,396.110046 532.746643,388.478668 531.066284,382.847656 
	C529.643127,378.078644 525.849854,375.839417 519.609436,376.804779 
M636.073669,378.369537 
	C629.489136,374.205353 623.659058,376.447540 622.807007,384.084503 
	C622.415405,387.594635 623.216492,391.792572 624.934204,394.863403 
	C628.130981,400.578644 634.993896,399.930695 637.767578,393.898987 
	C640.099121,388.828827 640.235352,383.640717 636.073669,378.369537 
M574.520264,477.007324 
	C566.794617,475.943115 559.068970,474.878876 551.343323,473.814667 
	C551.255920,474.353577 551.168518,474.892487 551.081116,475.431427 
	C561.637512,482.303040 573.430786,483.151581 585.639893,480.858307 
	C590.777893,479.893250 596.570496,479.562134 600.783020,473.381409 
	C591.494141,474.712891 583.490845,475.860107 574.520264,477.007324 
M576.468994,435.999725 
	C579.895142,435.129089 583.321228,434.258484 586.747375,433.387878 
	C586.635986,432.761230 586.524536,432.134583 586.413147,431.507935 
	C579.768738,431.055756 573.126465,430.564362 566.476624,430.215942 
	C565.854553,430.183350 564.613770,431.117798 564.655457,431.492584 
	C564.745422,432.301575 565.338379,433.535095 565.979187,433.721069 
	C569.137268,434.637573 572.378113,435.268585 576.468994,435.999725 
M691.212585,435.712189 
	C692.181152,435.403748 693.524231,435.398590 694.058594,434.738556 
	C698.105591,429.740265 703.043640,426.501984 709.596436,425.919464 
	C710.667725,425.824249 711.676819,425.029907 712.714661,424.558655 
	C712.592651,423.931946 712.470581,423.305267 712.348572,422.678558 
	C709.791443,422.808990 707.188477,422.679321 704.686096,423.120483 
	C698.189697,424.265778 691.922119,429.885803 691.212585,435.712189 
M453.472290,431.963562 
	C455.093353,433.718048 456.714386,435.472534 458.556824,437.466644 
	C459.092224,427.605988 447.672882,420.457947 438.258942,423.824005 
	C442.980255,426.273132 447.970367,428.861694 453.472290,431.963562 
z"/>
<path fill="#C29879" opacity="1.000000" stroke="none" 
	d="
M633.945435,583.868164 
	C626.721924,616.747986 588.727112,635.331909 558.726074,626.585266 
	C539.246765,620.906189 526.303711,608.471436 517.257812,591.104736 
	C516.295349,589.256958 516.157898,586.979431 515.551636,584.496216 
	C520.620056,583.019836 525.744019,581.752258 530.939453,580.943909 
	C534.627686,580.370117 536.469666,579.033325 536.144226,574.922241 
	C535.805908,570.648682 536.151245,566.320923 536.693115,561.535278 
	C542.300232,560.700500 547.518066,560.879333 552.501648,559.884521 
	C563.151733,557.758667 573.853516,555.584656 584.209961,552.381958 
	C594.422913,549.223755 604.235901,544.772217 614.224365,540.888123 
	C614.424561,552.358643 614.734070,563.829041 614.756104,575.299866 
	C614.762512,578.610046 615.725342,579.889954 619.156616,580.345581 
	C624.044922,580.994568 628.820435,582.493286 633.945435,583.868164 
z"/>
<path fill="#B18166" opacity="1.000000" stroke="none" 
	d="
M614.347534,540.532837 
	C604.235901,544.772217 594.422913,549.223755 584.209961,552.381958 
	C573.853516,555.584656 563.151733,557.758667 552.501648,559.884521 
	C547.518066,560.879333 542.300232,560.700500 536.759705,561.078308 
	C536.263611,552.353821 536.196350,543.604675 536.186646,534.379944 
	C548.065247,537.850769 560.179382,540.681213 572.647400,540.543335 
	C581.175171,540.449036 589.731689,539.240967 598.190369,537.966553 
	C603.518982,537.163818 608.690613,535.319397 614.313843,533.914856 
	C614.620239,535.984131 614.545532,538.080811 614.347534,540.532837 
z"/>
<path fill="#EEEEEE" opacity="1.000000" stroke="none" 
	d="
M515.268250,738.742249 
	C510.793518,739.579102 509.638153,736.977173 509.420654,733.648743 
	C509.239685,730.878967 509.383545,728.088013 509.383545,724.973633 
	C505.484985,725.791138 502.288788,726.461365 499.093170,727.131470 
	C499.437073,730.695923 500.157288,734.011169 499.903961,737.250305 
	C499.773468,738.918701 497.909912,740.451416 496.829529,742.045471 
	C495.258453,740.936829 492.574982,740.055115 492.295197,738.683105 
	C490.347595,729.132507 488.718323,719.503418 487.470978,709.837097 
	C487.268494,708.267761 489.466797,706.388672 490.555389,704.652771 
	C492.294312,705.876892 494.718109,706.737244 495.607697,708.412415 
	C496.864410,710.778931 496.987061,713.747681 497.655853,716.732849 
	C499.480469,716.391724 501.061859,715.948608 502.668030,715.823669 
	C507.293213,715.463745 509.261047,713.667908 508.371216,708.531494 
	C508.015778,706.479370 509.867920,702.497925 511.546326,701.952515 
	C515.413452,700.695801 517.181274,704.001465 517.428223,707.442200 
	C518.020325,715.693359 518.553711,723.964661 518.581421,732.229614 
	C518.588562,734.362244 516.638428,736.501404 515.268250,738.742249 
z"/>
<path fill="#F2F2F2" opacity="1.000000" stroke="none" 
	d="
M551.619873,700.427002 
	C555.316650,700.676819 558.790710,700.433899 561.836731,701.460815 
	C566.256226,702.950623 569.543518,706.019958 569.650208,711.252136 
	C569.755066,716.391785 566.945557,720.074829 561.493774,721.818115 
	C559.778503,722.366577 557.963196,722.602417 555.705383,723.085876 
	C556.286804,725.750305 556.933167,728.245911 557.352600,730.779114 
	C557.702759,732.893372 558.313965,735.182983 557.823914,737.149170 
	C557.425842,738.746094 555.778687,740.658875 554.276978,741.130432 
	C553.296265,741.438293 550.658081,739.651550 550.347961,738.407776 
	C547.828125,728.300842 545.360535,718.157166 543.558350,707.904968 
	C542.641907,702.691650 547.273682,701.575256 551.619873,700.427002 
z"/>
<path fill="#F3F4F4" opacity="1.000000" stroke="none" 
	d="
M535.959167,712.040100 
	C538.358398,715.089539 541.230652,717.681885 542.349243,720.886353 
	C543.791321,725.017761 542.336304,729.161560 538.410645,731.752930 
	C534.345703,734.436279 530.153259,734.802612 525.813843,732.039429 
	C521.619263,729.368408 520.862549,725.533997 521.981323,721.199768 
	C522.587463,718.851501 523.692688,716.551514 524.967590,714.471741 
	C528.538513,708.646484 529.590454,708.461731 535.959167,712.040100 
z"/>
<path fill="#272522" opacity="1.000000" stroke="none" 
	d="
M519.957642,376.650146 
	C525.849854,375.839417 529.643127,378.078644 531.066284,382.847656 
	C532.746643,388.478668 530.467163,396.110046 526.281738,397.918884 
	C522.468201,399.567017 519.121338,398.619080 516.733398,395.062653 
	C512.867126,389.304413 514.119568,381.430542 519.957642,376.650146 
z"/>
<path fill="#282522" opacity="1.000000" stroke="none" 
	d="
M636.350952,378.625458 
	C640.235352,383.640717 640.099121,388.828827 637.767578,393.898987 
	C634.993896,399.930695 628.130981,400.578644 624.934204,394.863403 
	C623.216492,391.792572 622.415405,387.594635 622.807007,384.084503 
	C623.659058,376.447540 629.489136,374.205353 636.350952,378.625458 
z"/>
<path fill="#B28569" opacity="1.000000" stroke="none" 
	d="
M575.003906,477.007324 
	C583.490845,475.860107 591.494141,474.712891 600.783020,473.381409 
	C596.570496,479.562134 590.777893,479.893250 585.639893,480.858307 
	C573.430786,483.151581 561.637512,482.303040 551.081116,475.431427 
	C551.168518,474.892487 551.255920,474.353577 551.343323,473.814667 
	C559.068970,474.878876 566.794617,475.943115 575.003906,477.007324 
z"/>
<path fill="#B4886B" opacity="1.000000" stroke="none" 
	d="
M576.029419,436.000061 
	C572.378113,435.268585 569.137268,434.637573 565.979187,433.721069 
	C565.338379,433.535095 564.745422,432.301575 564.655457,431.492584 
	C564.613770,431.117798 565.854553,430.183350 566.476624,430.215942 
	C573.126465,430.564362 579.768738,431.055756 586.413147,431.507935 
	C586.524536,432.134583 586.635986,432.761230 586.747375,433.387878 
	C583.321228,434.258484 579.895142,435.129089 576.029419,436.000061 
z"/>
<path fill="#B28569" opacity="1.000000" stroke="none" 
	d="
M691.140869,435.366486 
	C691.922119,429.885803 698.189697,424.265778 704.686096,423.120483 
	C707.188477,422.679321 709.791443,422.808990 712.348572,422.678558 
	C712.470581,423.305267 712.592651,423.931946 712.714661,424.558655 
	C711.676819,425.029907 710.667725,425.824249 709.596436,425.919464 
	C703.043640,426.501984 698.105591,429.740265 694.058594,434.738556 
	C693.524231,435.398590 692.181152,435.403748 691.140869,435.366486 
z"/>
<path fill="#B4886B" opacity="1.000000" stroke="none" 
	d="
M453.216370,431.706909 
	C447.970367,428.861694 442.980255,426.273132 438.258942,423.824005 
	C447.672882,420.457947 459.092224,427.605988 458.556824,437.466644 
	C456.714386,435.472534 455.093353,433.718048 453.216370,431.706909 
z"/>
</svg>